<svg xmlns="http://www.w3.org/2000/svg" width="360" height="260" viewBox="0 0 360 260" role="img" aria-labelledby="t"><title id="t">DayZen ready</title><circle cx="180" cy="128" r="112" fill="#FDEBE1"/><line x1="180.0" y1="104.0" x2="180.0" y2="64.0" stroke="#F49A70" stroke-width="8" stroke-linecap="round"/><line x1="234.1" y1="121.6" x2="257.6" y2="89.2" stroke="#F49A70" stroke-width="8" stroke-linecap="round"/><line x1="267.5" y1="167.6" x2="305.5" y2="155.2" stroke="#F49A70" stroke-width="8" stroke-linecap="round"/><line x1="125.9" y1="121.6" x2="102.4" y2="89.2" stroke="#F49A70" stroke-width="8" stroke-linecap="round"/><line x1="92.5" y1="167.6" x2="54.5" y2="155.2" stroke="#F49A70" stroke-width="8" stroke-linecap="round"/><path d="M114 196A66 66 0 0 1 246 196" fill="none" stroke="#F49A70" stroke-width="9" stroke-linecap="round"/><line x1="48" y1="196" x2="312" y2="196" stroke="#1E2A38" stroke-width="5" stroke-linecap="round"/><circle cx="180" cy="196" r="34" fill="#1E2A38"/><path d="M166 196L175.8 205.8L194 187.6" fill="none" stroke="#FFFFFF" stroke-width="7" stroke-linecap="round" stroke-linejoin="round"/><circle cx="64" cy="86" r="5" fill="#F49A70"/><circle cx="300" cy="90" r="5" fill="#1E2A38"/><circle cx="88" cy="160" r="4" fill="#A9B7C3"/><circle cx="276" cy="168" r="4" fill="#F49A70"/><path d="M56 123Q56 132 65 132Q56 132 56 141Q56 132 47 132Q56 132 56 123Z" fill="#F49A70"/><path d="M310 121Q310 130 319 130Q310 130 310 139Q310 130 301 130Q310 130 310 121Z" fill="#1E2A38"/><circle cx="120" cy="44" r="4" fill="#1E2A38"/><circle cx="246" cy="40" r="4" fill="#F49A70"/><rect x="72" y="208" width="10" height="10" rx="2" transform="rotate(20 77 213)" fill="#4A9C84"/><rect x="284" y="204" width="10" height="10" rx="2" transform="rotate(-25 289 209)" fill="#F49A70"/></svg>
